<svg xmlns="http://www.w3.org/2000/svg" viewBox="0 -13.5 64 64" fill="#2563eb"><path fill-rule="evenodd" d="M17 3.2 a2.6 2.6 0 0 1 1.8 .75 L30.2 15 a2.6 2.6 0 0 1 .8 1.9 V31.4 a2.6 2.6 0 0 1 -2.6 2.6 H5.6 a2.6 2.6 0 0 1 -2.6 -2.6 V16.9 a2.6 2.6 0 0 1 .8 -1.9 L15.2 3.95 A2.6 2.6 0 0 1 17 3.2 Z M17 17 a5 5 0 1 0 0 10 a5 5 0 1 0 0 -10 Z"/><path d="M29 17.5 H58 a3 3 0 0 1 3 3 v1 a3 3 0 0 1 -3 3 H56 V29.5 a1.5 1.5 0 0 1 -1.5 1.5 H51.5 a1.5 1.5 0 0 1 -1.5 -1.5 V24.5 H47 V28 a1.5 1.5 0 0 1 -1.5 1.5 H42.5 a1.5 1.5 0 0 1 -1.5 -1.5 V24.5 H29 Z"/></svg>
